<svg width="18" height="12" viewBox="0 0 18 12" fill="none" xmlns="http://www.w3.org/2000/svg">
<path d="M18 1.55349C18 4.54535 18 7.53605 18 10.5279C17.5086 11.714 17.0776 12 15.7778 12C11.1658 12 6.55261 12 1.94058 11.9977C1.75588 11.9977 1.56661 11.9895 1.3876 11.9488C0.631659 11.7779 0.233737 11.2337 0 10.5279C0 7.5093 0 4.4907 0 1.47209C0.473174 0.301163 0.920124 0 2.18116 0C6.78976 0 11.3984 0 16.0058 0.00232558C16.2042 0.00232558 16.4072 0.00813953 16.5987 0.0523256C17.3923 0.231395 17.797 0.797674 18 1.55349ZM2.30658 1.22326C2.432 1.35698 2.50953 1.44302 2.59049 1.52558C4.59834 3.57326 6.6062 5.62093 8.61405 7.6686C8.97093 8.03256 9.02907 8.03256 9.38595 7.66744C11.3938 5.61977 13.4017 3.57326 15.4095 1.52442C15.4893 1.44302 15.5669 1.35698 15.6923 1.22209C11.2057 1.22326 6.79432 1.22326 2.30658 1.22326ZM2.70678 10.7581C6.9072 10.7581 11.1088 10.7581 15.2659 10.7581C14.0652 9.53372 12.8646 8.30814 11.6549 7.07558C11.6652 7.06977 11.6378 7.07791 11.6196 7.09651C11.1281 7.59419 10.6401 8.09535 10.1476 8.59186C9.39279 9.35233 8.60265 9.35116 7.84443 8.58488C7.33477 8.06977 6.82967 7.55 6.34053 7.05C5.11712 8.29768 3.91651 9.52326 2.70678 10.7581ZM1.22341 1.92326C1.22341 4.74651 1.22341 7.56279 1.22341 10.3419C2.60531 8.93023 3.98949 7.51512 5.33946 6.13488C4.00545 4.7686 2.61785 3.34884 1.22341 1.92326ZM16.7766 10.3465C16.7766 7.55581 16.7766 4.73256 16.7766 1.92209C15.3822 3.34884 13.9957 4.76977 12.6583 6.13721C14.0094 7.51744 15.3936 8.93256 16.7766 10.3465Z" fill="black"/>
</svg>
