<svg width="16" height="16" viewBox="0 0 16 16" fill="none" xmlns="http://www.w3.org/2000/svg">
<path d="M7.8542 7.34638e-05C11.4798 -0.0148631 14.5857 2.24909 15.6161 5.66244C16.4543 8.43957 15.9155 10.9948 14.0405 13.204C12.3332 15.2158 10.1074 16.1209 7.47785 15.9868C6.27358 15.9253 5.136 15.5917 4.09491 14.9707C3.88102 14.8431 3.70472 14.8303 3.47345 14.9227C2.66611 15.2453 1.84849 15.5412 1.0369 15.8527C0.737869 15.9676 0.461899 15.9466 0.232042 15.719C-0.0024258 15.4868 -0.0332862 15.2037 0.0819969 14.8975C0.410465 14.0269 0.732548 13.1538 1.06492 12.285C1.11635 12.1506 1.10997 12.0482 1.04044 11.9216C0.0731289 10.1566 -0.254275 8.27456 0.204729 6.31538C0.905295 3.32487 2.74876 1.33796 5.65708 0.35535C6.41015 0.101073 7.18946 0.0125206 7.8542 7.34638e-05ZM1.94142 13.9846C2.05351 13.9444 2.11382 13.9241 2.17341 13.9017C2.62709 13.7303 3.0829 13.5642 3.53304 13.3846C3.82107 13.2698 4.08037 13.2936 4.34073 13.4643C4.83166 13.7865 5.3499 14.0546 5.90929 14.2435C8.49553 15.1173 11.3748 14.2783 13.0934 12.1449C15.3292 9.36955 14.9691 5.32922 12.2804 3.02223C9.51357 0.648035 5.38466 0.953522 3.03289 3.70647C1.17559 5.88044 0.90494 8.99187 2.38411 11.3927C2.62177 11.7782 2.67782 12.1239 2.48946 12.5425C2.28621 12.9941 2.13439 13.4693 1.94142 13.9846Z" fill="black"/>
<path d="M7.55249 5.82829C7.69757 5.90901 7.86322 5.96663 7.98383 6.07474C8.31371 6.37133 8.62835 6.68536 8.94085 7.00116C9.03521 7.09647 9.10757 7.1114 9.22924 7.04775C9.85815 6.71879 10.4899 6.39481 11.1256 6.07865C11.5303 5.87736 11.9808 6.13662 11.9765 6.57796C11.9751 6.72483 11.9134 6.90336 11.8169 7.01183C10.95 7.98412 10.0706 8.9454 9.19199 9.90667C8.92099 10.2033 8.5606 10.2132 8.26725 9.9401C7.92069 9.61754 7.57271 9.29605 7.2336 8.96531C7.13463 8.86894 7.06192 8.8668 6.94451 8.93259C6.28934 9.30032 5.62922 9.65915 4.97051 10.0208C4.75839 10.1375 4.53917 10.1958 4.31428 10.0621C3.98049 9.86364 3.90777 9.46462 4.15182 9.1602C4.25894 9.02648 4.38203 8.90521 4.50051 8.78109C5.34651 7.8945 6.19357 7.00827 7.04028 6.12204C7.17436 5.98156 7.31944 5.86349 7.52943 5.87274C7.53688 5.85816 7.54469 5.84322 7.55249 5.82829Z" fill="black"/>
</svg>
