<svg width="20" height="20" viewBox="0 0 20 20" fill="none" xmlns="http://www.w3.org/2000/svg">
<path d="M4.14058 0C4.77356 0.181861 5.25267 0.582886 5.70146 1.04803C6.46034 1.83493 7.22271 2.61949 8.02122 3.36442C8.88034 4.16647 9.16127 5.57006 8.03404 6.54348C7.48499 7.01795 6.99656 7.56237 6.4685 8.08697C7.97109 10.2273 9.77327 12.0249 11.9088 13.5323C12.4719 12.9669 13.0198 12.4131 13.5711 11.8629C14.4011 11.0352 15.5482 10.9711 16.3968 11.7731C17.4366 12.7559 18.4449 13.7736 19.4288 14.8135C19.6923 15.0921 19.8135 15.5071 20 15.8592C20 16.1191 20 16.3803 20 16.6402C19.6934 17.0623 19.4067 17.5017 19.0733 17.9028C18.7923 18.2408 18.4473 18.5241 18.1454 18.8459C17.6488 19.3763 17.0321 19.6806 16.3397 19.8566C16.1532 19.9032 15.9678 19.9522 15.7813 20C15.3127 20 14.8441 20 14.3755 20C14.3172 19.9767 14.2601 19.9499 14.1995 19.9312C13.2552 19.6538 12.2737 19.4661 11.3726 19.086C8.71481 17.9646 6.51746 16.1809 4.57189 14.0814C2.7429 12.1066 1.24497 9.91606 0.432477 7.31756C0.244798 6.71602 0.142216 6.0865 0 5.46864C0 5.07811 0 4.68757 0 4.29704C0.17369 3.75962 0.243632 3.15458 0.542053 2.69876C1.26596 1.59478 2.16238 0.629517 3.35956 0C3.61951 0 3.88063 0 4.14058 0ZM1.24031 4.94987C1.2578 6.09 1.57953 7.15901 2.05747 8.1779C3.80719 11.9014 6.52212 14.768 9.97377 16.955C11.3668 17.8387 12.8554 18.516 14.52 18.7142C15.6601 18.8494 16.6952 18.6675 17.4937 17.7337C17.7887 17.3887 18.1349 17.0867 18.4554 16.7626C18.8343 16.3803 18.8704 16.0212 18.4986 15.64C17.5357 14.6514 16.5588 13.6757 15.5715 12.7128C15.2008 12.3514 14.8231 12.3875 14.4454 12.7629C13.9092 13.2945 13.38 13.8331 12.8426 14.3635C12.325 14.8753 11.7375 14.9382 11.15 14.5255C8.92347 12.9611 7.0257 11.0655 5.46716 8.83539C5.06382 8.2595 5.12794 7.68011 5.62569 7.17533C6.17474 6.61926 6.73078 6.07135 7.28099 5.51644C7.60622 5.18886 7.65169 4.81114 7.32995 4.48007C6.34143 3.46001 5.33776 2.45628 4.31894 1.46887C3.96922 1.12963 3.61135 1.1786 3.25698 1.52833C2.91426 1.8664 2.59253 2.22896 2.23116 2.54605C1.4991 3.18839 1.22049 4.00326 1.24031 4.94987Z" fill="black"/>
</svg>
